<?xml version="1.0" encoding="UTF-8" standalone="no"?>
<!-- Created with Inkscape (http://www.inkscape.org/) -->

<svg
   xmlns:dc="http://purl.org/dc/elements/1.1/"
   xmlns:cc="http://creativecommons.org/ns#"
   xmlns:rdf="http://www.w3.org/1999/02/22-rdf-syntax-ns#"
   xmlns:svg="http://www.w3.org/2000/svg"
   xmlns="http://www.w3.org/2000/svg"
   xmlns:sodipodi="http://sodipodi.sourceforge.net/DTD/sodipodi-0.dtd"
   xmlns:inkscape="http://www.inkscape.org/namespaces/inkscape"
   width="210mm"
   height="297mm"
   viewBox="0 0 210 297"
   version="1.1"
   id="svg8"
   inkscape:version="0.92.2 (5c3e80d, 2017-08-06)"
   sodipodi:docname="drawing2.svg">
  <defs
     id="defs2" />
  <sodipodi:namedview
     id="base"
     pagecolor="#ffffff"
     bordercolor="#666666"
     borderopacity="1.0"
     inkscape:pageopacity="0.0"
     inkscape:pageshadow="2"
     inkscape:zoom="1.4"
     inkscape:cx="142.38512"
     inkscape:cy="626.48314"
     inkscape:document-units="mm"
     inkscape:current-layer="layer1"
     showgrid="false"
     inkscape:window-width="1920"
     inkscape:window-height="1017"
     inkscape:window-x="-8"
     inkscape:window-y="-8"
     inkscape:window-maximized="1" />
  <metadata
     id="metadata5">
    <rdf:RDF>
      <cc:Work
         rdf:about="">
        <dc:format>image/svg+xml</dc:format>
        <dc:type
           rdf:resource="http://purl.org/dc/dcmitype/StillImage" />
        <dc:title />
      </cc:Work>
    </rdf:RDF>
  </metadata>
  <g
     inkscape:label="Layer 1"
     inkscape:groupmode="layer"
     id="layer1">
    <path
       style="fill:#000000;stroke-width:0.26458335"
       d="m 51.519117,142.99863 c -0.580368,-0.46945 -0.630919,-0.72235 -0.71348,-3.56952 l -0.08886,-3.06428 0.818818,-0.81882 0.818818,-0.81882 3.064277,0.0889 c 4.058412,0.11768 4.074758,0.13549 4.074758,4.43767 0,2.89785 -0.03985,3.13701 -0.612366,3.67486 -0.555916,0.52225 -0.894671,0.57529 -3.674855,0.57529 -2.61969,0 -3.152803,-0.0731 -3.687114,-0.50524 z m -9.488166,-2.66976 v -1.05834 h 1.058334 1.058333 v 1.05834 1.05833 h -1.058333 -1.058334 z m 4.497917,0 v -1.05834 h 1.058333 1.058334 v 1.05834 1.05833 h -1.058334 -1.058333 z m -4.497917,-4.49792 v -1.05833 h 1.058334 1.058333 v 1.05833 1.05833 h -1.058333 -1.058334 z m -0.974891,-3.44143 c -0.943636,-0.3802 -1.141776,-1.12645 -1.141776,-4.30026 0,-2.80839 0.04177,-3.05323 0.612366,-3.58927 0.555916,-0.52226 0.894671,-0.57529 3.674855,-0.57529 4.259757,0 4.283062,0.0216 4.400594,4.07476 l 0.08886,3.06427 -0.796108,0.79611 c -0.785079,0.78508 -0.833956,0.79588 -3.528439,0.77934 -1.502783,-0.009 -2.992439,-0.12157 -3.310348,-0.24966 z"
       id="path10"
       inkscape:connector-curvature="0"
       inkscape:label="#path826"
       onclick="c"
       onmouseover="d">
      <desc
         id="desc823">b</desc>
      <title
         id="title821">a</title>
    </path>
  </g>
</svg>
